<svg xmlns="http://www.w3.org/2000/svg" xmlns:xlink="http://www.w3.org/1999/xlink" width="500" zoomAndPan="magnify" viewBox="0 0 375 374.999991" height="500" preserveAspectRatio="xMidYMid meet" version="1.0"><defs><clipPath id="68ac81376b"><path d="M 22.207031 0 L 352.957031 0 L 352.957031 375 L 22.207031 375 Z M 22.207031 0 " clip-rule="nonzero"/></clipPath></defs><g clip-path="url(#68ac81376b)"><path fill="#332c54" d="M 352.863281 74.753906 L 352.863281 97.769531 L 225.507812 26.023438 C 232.265625 22.144531 238.308594 18.625 244.820312 14.886719 Z M 137.355469 11.355469 L 159.109375 24.15625 L 71.261719 75.148438 L 71.261719 98.15625 L 178.246094 35.390625 L 190.527344 42.617188 L 22.300781 138.761719 L 22.300781 162.125 L 40.734375 151.523438 L 40.734375 243.613281 L 60.699219 255.199219 L 60.699219 140.03125 L 72.960938 132.972656 L 73.046875 325.289062 C 79.519531 328.820312 86.242188 333.125 92.984375 336.832031 L 92.984375 314.796875 L 173.570312 360.109375 C 180.078125 356.367188 186.125 352.847656 192.878906 348.96875 L 92.949219 291.820312 L 92.949219 276.542969 L 261.316406 375 C 267.707031 371.316406 274.351562 367.5 281.03125 363.675781 L 258.9375 350.699219 L 346.628906 294.558594 L 329.953125 285.042969 L 239.625 339.355469 L 227.71875 332.382812 L 331.980469 269.953125 L 352.863281 257.453125 L 333.035156 247.179688 L 186.25 164.570312 L 186.25 187.933594 L 312.78125 259.152344 L 299.390625 267.0625 L 213.871094 218.214844 L 213.871094 241.226562 L 280.214844 278.417969 L 208.257812 320.925781 L 92.933594 253.171875 L 92.933594 121.503906 L 210.011719 54.085938 L 352.863281 138.210938 L 352.863281 114.816406 L 157.070312 0 C 150.683594 3.683594 144.035156 7.5 137.355469 11.324219 Z M 137.355469 11.355469 " fill-opacity="1" fill-rule="nonzero"/></g></svg>