<svg xmlns="http://www.w3.org/2000/svg" xmlns:xlink="http://www.w3.org/1999/xlink" width="500" zoomAndPan="magnify" viewBox="0 0 375 374.999991" height="500" preserveAspectRatio="xMidYMid meet" version="1.0"><defs><clipPath id="d93f230bfe"><path d="M 22.207031 0 L 352.957031 0 L 352.957031 375 L 22.207031 375 Z M 22.207031 0 " clip-rule="nonzero"/></clipPath></defs><g clip-path="url(#d93f230bfe)"><path fill="#ffffff" d="M 352.6875 74.753906 L 352.6875 97.769531 L 225.402344 26.023438 C 232.152344 22.144531 238.195312 18.625 244.699219 14.886719 Z M 137.296875 11.355469 L 159.035156 24.15625 L 71.234375 75.148438 L 71.234375 98.15625 L 178.164062 35.390625 L 190.4375 42.617188 L 22.300781 138.761719 L 22.300781 162.125 L 40.726562 151.523438 L 40.726562 243.613281 L 60.679688 255.199219 L 60.679688 140.03125 L 72.933594 132.972656 L 73.023438 325.289062 C 79.488281 328.820312 86.207031 333.125 92.949219 336.832031 L 92.949219 314.796875 L 173.492188 360.109375 C 179.996094 356.367188 186.035156 352.847656 192.789062 348.96875 L 92.910156 291.820312 L 92.910156 276.542969 L 261.191406 375 C 267.574219 371.316406 274.21875 367.5 280.894531 363.675781 L 258.8125 350.699219 L 346.457031 294.558594 L 329.789062 285.042969 L 239.507812 339.355469 L 227.609375 332.382812 L 331.816406 269.953125 L 352.6875 257.453125 L 332.871094 247.179688 L 186.164062 164.570312 L 186.164062 187.933594 L 312.625 259.152344 L 299.242188 267.0625 L 213.769531 218.214844 L 213.769531 241.226562 L 280.078125 278.417969 L 208.15625 320.925781 L 92.898438 253.171875 L 92.898438 121.503906 L 209.914062 54.085938 L 352.6875 138.210938 L 352.6875 114.816406 L 157 0 C 150.617188 3.683594 143.972656 7.5 137.296875 11.324219 Z M 137.296875 11.355469 " fill-opacity="1" fill-rule="nonzero"/></g></svg>