<svg xmlns="http://www.w3.org/2000/svg" xmlns:xlink="http://www.w3.org/1999/xlink" width="500" zoomAndPan="magnify" viewBox="0 0 375 374.999991" height="500" preserveAspectRatio="xMidYMid meet" version="1.0"><defs><clipPath id="eb3af48165"><path d="M 47.449219 0 L 342.949219 0 L 342.949219 375 L 47.449219 375 Z M 47.449219 0 " clip-rule="nonzero"/></clipPath></defs><g clip-path="url(#eb3af48165)"><path fill="#332c54" d="M 298.582031 332.253906 C 241.578125 389.214844 148.828125 389.214844 91.847656 332.253906 C 32.652344 273.089844 32.652344 176.90625 91.847656 117.789062 L 129.058594 80.605469 C 153.097656 56.539062 182.867188 25.628906 181.292969 0.03125 C 185.71875 4.453125 189.109375 10.75 191.382812 18.273438 C 194.859375 29.773438 195.710938 44.148438 193.625 59.039062 C 193.625 59.039062 193.625 59.078125 193.625 59.109375 C 190.5625 80.851562 181.21875 103.695312 164.59375 120.34375 C 162.347656 122.996094 159.964844 125.585938 157.449219 128.105469 L 129.832031 155.707031 C 91.609375 193.914062 91.609375 256.074219 129.832031 294.28125 C 165.902344 330.324219 224.578125 330.328125 260.648438 294.28125 C 298.875 256.074219 298.871094 193.910156 260.648438 155.703125 L 257.125 152.179688 L 222.476562 187.503906 L 214.804688 195.320312 L 213.152344 197.027344 C 212.476562 197.707031 211.839844 198.414062 211.21875 199.140625 C 185.152344 227.140625 165.007812 258.007812 176.582031 292.023438 C 175.476562 290.953125 174.398438 289.859375 173.347656 288.738281 C 172.296875 287.621094 171.277344 286.472656 170.28125 285.304688 C 169.289062 284.132812 168.324219 282.9375 167.386719 281.71875 C 166.453125 280.5 165.546875 279.261719 164.675781 278 C 163.800781 276.734375 162.957031 275.453125 162.148438 274.148438 C 161.335938 272.84375 160.558594 271.519531 159.816406 270.175781 C 159.070312 268.832031 158.359375 267.472656 157.679688 266.097656 C 157 264.71875 156.359375 263.324219 155.75 261.914062 C 155.140625 260.503906 154.566406 259.082031 154.023438 257.644531 C 153.484375 256.207031 152.984375 254.753906 152.515625 253.292969 C 152.046875 251.832031 151.617188 250.355469 151.222656 248.875 C 150.828125 247.390625 150.46875 245.898438 150.148438 244.394531 C 149.828125 242.894531 149.542969 241.386719 149.296875 239.871094 C 149.046875 238.355469 148.839844 236.832031 148.667969 235.308594 C 148.496094 233.78125 148.363281 232.253906 148.265625 230.71875 C 148.167969 229.1875 148.109375 227.652344 148.089844 226.117188 C 148.070312 224.582031 148.085938 223.046875 148.140625 221.515625 C 148.195312 219.980469 148.289062 218.449219 148.421875 216.917969 C 148.550781 215.386719 148.71875 213.863281 148.925781 212.339844 C 149.132812 210.820312 149.375 209.304688 149.65625 207.792969 C 149.9375 206.285156 150.253906 204.78125 150.609375 203.289062 C 150.964844 201.792969 151.355469 200.308594 151.785156 198.835938 C 152.210938 197.359375 152.675781 195.898438 153.175781 194.445312 C 153.675781 192.992188 154.210938 191.554688 154.785156 190.128906 C 155.355469 188.703125 155.960938 187.292969 156.601562 185.898438 C 157.242188 184.503906 157.917969 183.125 158.625 181.761719 C 159.335938 180.398438 160.078125 179.054688 160.851562 177.730469 C 161.628906 176.40625 162.433594 175.097656 163.273438 173.8125 C 164.113281 172.527344 164.984375 171.261719 165.886719 170.019531 C 166.789062 168.777344 167.722656 167.554688 168.683594 166.359375 C 169.644531 165.164062 170.636719 163.988281 171.65625 162.839844 C 172.675781 161.695312 173.722656 160.570312 174.800781 159.472656 L 256.765625 75.941406 L 298.574219 117.789062 C 357.738281 176.90625 357.746094 273.089844 298.582031 332.253906 Z M 298.582031 332.253906 " fill-opacity="1" fill-rule="nonzero"/></g></svg>