<svg xmlns="http://www.w3.org/2000/svg" xmlns:xlink="http://www.w3.org/1999/xlink" width="500" zoomAndPan="magnify" viewBox="0 0 375 374.999991" height="500" preserveAspectRatio="xMidYMid meet" version="1.0"><defs><clipPath id="a33deb78b9"><path d="M 47.449219 0 L 342.949219 0 L 342.949219 375 L 47.449219 375 Z M 47.449219 0 " clip-rule="nonzero"/></clipPath></defs><g clip-path="url(#a33deb78b9)"><path fill="#ffffff" d="M 298.429688 332.253906 C 241.464844 389.214844 148.765625 389.214844 91.824219 332.253906 C 32.660156 273.089844 32.660156 176.90625 91.824219 117.789062 L 129.007812 80.605469 C 153.03125 56.539062 182.785156 25.628906 181.214844 0.03125 C 185.636719 4.453125 189.027344 10.75 191.296875 18.273438 C 194.769531 29.773438 195.625 44.148438 193.535156 59.039062 C 193.535156 59.039062 193.535156 59.078125 193.535156 59.109375 C 190.476562 80.851562 181.140625 103.695312 164.523438 120.34375 C 162.277344 122.996094 159.898438 125.585938 157.386719 128.105469 L 129.785156 155.707031 C 91.582031 193.914062 91.582031 256.074219 129.785156 294.28125 C 165.832031 330.324219 224.472656 330.328125 260.519531 294.28125 C 298.726562 256.074219 298.722656 193.910156 260.519531 155.703125 L 257 152.179688 L 222.371094 187.503906 L 214.703125 195.320312 L 213.054688 197.027344 C 212.378906 197.707031 211.742188 198.414062 211.121094 199.140625 C 185.070312 227.140625 164.941406 258.007812 176.503906 292.023438 C 175.402344 290.953125 174.324219 289.859375 173.273438 288.738281 C 172.222656 287.621094 171.203125 286.472656 170.207031 285.304688 C 169.214844 284.132812 168.25 282.9375 167.316406 281.71875 C 166.382812 280.5 165.476562 279.261719 164.605469 278 C 163.730469 276.734375 162.890625 275.453125 162.078125 274.148438 C 161.269531 272.84375 160.492188 271.519531 159.746094 270.175781 C 159.003906 268.832031 158.292969 267.472656 157.613281 266.097656 C 156.9375 264.71875 156.292969 263.324219 155.683594 261.914062 C 155.074219 260.503906 154.5 259.082031 153.960938 257.644531 C 153.421875 256.207031 152.921875 254.753906 152.453125 253.292969 C 151.984375 251.832031 151.554688 250.355469 151.160156 248.875 C 150.765625 247.390625 150.40625 245.898438 150.085938 244.394531 C 149.765625 242.894531 149.480469 241.386719 149.234375 239.871094 C 148.988281 238.355469 148.777344 236.832031 148.605469 235.308594 C 148.4375 233.78125 148.300781 232.253906 148.207031 230.71875 C 148.109375 229.1875 148.050781 227.652344 148.03125 226.117188 C 148.007812 224.582031 148.027344 223.046875 148.082031 221.515625 C 148.136719 219.980469 148.230469 218.449219 148.359375 216.917969 C 148.492188 215.386719 148.660156 213.863281 148.863281 212.339844 C 149.070312 210.820312 149.3125 209.304688 149.59375 207.792969 C 149.875 206.285156 150.191406 204.78125 150.546875 203.289062 C 150.902344 201.792969 151.292969 200.308594 151.722656 198.835938 C 152.148438 197.359375 152.613281 195.898438 153.113281 194.445312 C 153.613281 192.992188 154.148438 191.554688 154.71875 190.128906 C 155.289062 188.703125 155.894531 187.292969 156.535156 185.898438 C 157.175781 184.503906 157.851562 183.125 158.558594 181.761719 C 159.269531 180.398438 160.011719 179.054688 160.785156 177.730469 C 161.558594 176.40625 162.367188 175.097656 163.207031 173.8125 C 164.042969 172.527344 164.914062 171.261719 165.816406 170.019531 C 166.71875 168.777344 167.648438 167.554688 168.609375 166.359375 C 169.574219 165.164062 170.5625 163.988281 171.582031 162.839844 C 172.601562 161.695312 173.648438 160.570312 174.722656 159.472656 L 256.640625 75.941406 L 298.425781 117.789062 C 357.554688 176.90625 357.558594 273.089844 298.429688 332.253906 Z M 298.429688 332.253906 " fill-opacity="1" fill-rule="nonzero"/></g></svg>